# xmcd
#
# Track frame offsets:
#	155
#	18225
#	39168
#	57168
#
# Disc length: 997 seconds
#
# Revision: 0
# Processed by: cddbd v1.5.2PL0 Copyright (c) Steve Scherf et al.
# Submitted via: audiograbber 1.83.01
#
DISCID=2303e304
DTITLE=Robert Cray - The Forecast
DYEAR=1990
DGENRE=Blues
TTITLE0=The forecast (calls for pain)
TTITLE1=Holdin' court
TTITLE2=The forecast (calls for pain) (more horns)
TTITLE3=Labor of love
EXTD=
EXTT0=
EXTT1=
EXTT2=
EXTT3=
PLAYORDER=
